<?xml version="1.0" encoding="iso-8859-1"?>
<!-- Generator: Adobe Illustrator 19.0.0, SVG Export Plug-In . SVG Version: 6.00 Build 0)  -->
<svg version="1.1" id="Capa_1" xmlns="http://www.w3.org/2000/svg" x="0px" y="0px"
	 viewBox="0 0 469.566 469.566" style="enable-background:new 0 0 469.566 469.566;" xml:space="preserve">
<path style="fill:#1E81CE;" d="M376,2.783H104c-17.673,0-32,14.327-32,32v400c0,17.673-14.327,32-32,32h32h272
	c17.673,0,32-14.327,32-32v-400c0-17.673,14.327-32,32-32H376z"/>
	<path style="fill:#5AAAE7;"
		  d="M408,2.783L408,2.783c-17.673,0-32,14.327-32,32v0h64v0C440,17.11,425.673,2.783,408,2.783z"/>
	<path style="fill:#FFD422;" d="M0,130.783c0,8.836,7.164,16,16,16h183.998c8.836,0,16-7.164,16-16v-80H0V130.783z"/>
	<path style="fill:#F40E34;" d="M199.998,2.783H16c-8.836,0-16,7.163-16,16v32h215.998v-32
	C215.998,9.946,208.834,2.783,199.998,2.783z"/>
	<g>
	<rect x="104" y="330.783" style="fill:#FFD422;" width="72" height="16"/>
		<rect x="104" y="362.783" style="fill:#FFD422;" width="120" height="16"/>
		<rect x="104" y="298.783" style="fill:#FFD422;" width="112" height="16"/>
		<rect x="136" y="266.783" style="fill:#FFD422;" width="80" height="16"/>
		<rect x="104" y="234.783" style="fill:#FFD422;" width="112" height="16"/>
		<rect x="104" y="202.783" style="fill:#FFD422;" width="176" height="16"/>
		<rect x="136" y="170.783" style="fill:#FFD422;" width="216" height="16"/>
</g>
	<rect x="353.683" y="350.888" transform="matrix(-0.7071 -0.7071 0.7071 -0.7071 403.6598 964.9787)"
		  style="fill:#69C229;" width="96" height="96"/>
	<polygon style="fill:#FFB398;" points="333.823,398.901 271.598,336.675 271.598,280.107 299.882,274.45 339.48,314.048
	299.882,274.45 271.598,280.107 271.598,302.734 237.657,302.734 237.657,257.479 305.539,223.538 356.451,240.509 379.077,263.133 
	401.706,331.019 "/>
	<path style="fill:#F40E34;" d="M311.196,285.764l62.225-62.225c6.248-6.248,16.379-6.248,22.627,0l0,0
	c6.248,6.248,6.248,16.379,0,22.627l-62.225,62.225L311.196,285.764z"/>
	<polygon style="fill:#FF9811;"
			 points="237.657,359.303 232,387.587 260.284,381.93 265.941,376.273 243.313,353.646 "/>
	<polygon style="fill:#F40E34;" points="271.598,325.362 243.313,353.646 265.941,376.273 288.568,353.646 "/>
	<rect x="136" y="418.783" style="fill:#FFD422;" width="168" height="16"/>
	<rect x="264" y="34.783" style="fill:#FFFFFF;" width="80" height="80"/>
	<path style="fill:#5AAAE7;" d="M336,466.783H48c-17.673,0-32-14.327-32-32v0h288C304,452.456,318.327,466.783,336,466.783
	L336,466.783z"/>
	<g>
	<rect x="16" y="50.783" style="fill:#FFFFFF;" width="16" height="16"/>
		<polygon style="fill:#FFFFFF;"
				 points="32,106.783 32,82.783 16,82.783 16,122.783 32,122.783 48,122.783 48,106.783 	"/>
</g>
	<g>
</g>
	<g>
</g>
	<g>
</g>
	<g>
</g>
	<g>
</g>
	<g>
</g>
	<g>
</g>
	<g>
</g>
	<g>
</g>
	<g>
</g>
	<g>
</g>
	<g>
</g>
	<g>
</g>
	<g>
</g>
	<g>
</g>
</svg>
